<svg width="45" height="35" viewBox="0 0 45 35" fill="none" xmlns="http://www.w3.org/2000/svg"><defs>
    <linearGradient id="paint0_linear" x1="-5.10306e-07" y1="46.0157" x2="55.2718" y2="28.7092" gradientUnits="userSpaceOnUse">
        <stop stop-color="#F43B47"/>
        <stop offset="1" stop-color="#F7C978"/>
    </linearGradient>
</defs><path d="M43.7158 5.2958L38.7158 0.295798C38.6228 0.20207 38.5122 0.127676 38.3904 0.0769072C38.2685 0.0261385 38.1378 0 38.0058 0C37.8738 0 37.7431 0.0261385 37.6212 0.0769072C37.4994 0.127676 37.3888 0.20207 37.2958 0.295798L16.0058 21.5958L6.7158 12.2958C6.62284 12.2021 6.51223 12.1277 6.39038 12.0769C6.26852 12.0261 6.13781 12 6.0058 12C5.87379 12 5.74308 12.0261 5.62122 12.0769C5.49936 12.1277 5.38876 12.2021 5.2958 12.2958L0.295798 17.2958C0.20207 17.3888 0.127676 17.4994 0.0769069 17.6212C0.0261382 17.7431 0 17.8738 0 18.0058C0 18.1378 0.0261382 18.2685 0.0769069 18.3904C0.127676 18.5122 0.20207 18.6228 0.295798 18.7158L15.2958 33.7158C15.3888 33.8095 15.4994 33.8839 15.6212 33.9347C15.7431 33.9855 15.8738 34.0116 16.0058 34.0116C16.1378 34.0116 16.2685 33.9855 16.3904 33.9347C16.5122 33.8839 16.6228 33.8095 16.7158 33.7158L43.7158 6.7158C43.8095 6.62284 43.8839 6.51223 43.9347 6.39038C43.9855 6.26852 44.0116 6.13781 44.0116 6.0058C44.0116 5.87379 43.9855 5.74308 43.9347 5.62122C43.8839 5.49936 43.8095 5.38876 43.7158 5.2958ZM21.3358 25.7458L19.9258 24.3358L26.8358 17.4258L28.2458 18.8358L21.3358 25.7458ZM29.8358 17.2458L28.4258 15.8358L30.8358 13.4258L32.2458 14.8358L29.8358 17.2458Z" fill="url(#paint0_linear)"/>
</svg>
