<svg width="26" height="38" viewBox="0 0 26 38" fill="none" xmlns="http://www.w3.org/2000/svg">
    <defs>
        <linearGradient id="paint0_linear" x1="-2.98498e-07" y1="50.2753" x2="34.5301" y2="44.4868" gradientUnits="userSpaceOnUse">
            <stop stop-color="#F43B47"/>
            <stop offset="1" stop-color="#F7C978"/>
        </linearGradient>
        <linearGradient id="paint1_linear" x1="-2.98498e-07" y1="50.2753" x2="34.5301" y2="44.4868" gradientUnits="userSpaceOnUse">
            <stop stop-color="#F43B47"/>
            <stop offset="1" stop-color="#F7C978"/>
        </linearGradient>
    </defs><path d="M16.7201 20.7304V24.176C16.7201 25.2806 15.8247 26.176 14.7201 26.176H10.7361C9.63157 26.176 8.73614 25.2806 8.73614 24.176V16.976C8.73614 15.986 9.46042 15.145 10.4395 14.9981C13.5671 14.529 15.4726 13.8617 16.4558 13.1757L16.4735 13.1635C17.2911 12.6061 17.7121 11.8577 17.7121 10.64C17.7121 9.70817 17.3998 9.06542 16.7561 8.53204C16.1481 8.02827 14.9981 7.6 12.9441 7.6C11.2268 7.6 9.99731 8.07055 9.0822 8.87672L9.07974 8.87888C8.19352 9.65702 7.59743 10.7638 7.39221 12.3799C7.30785 13.0442 6.89665 13.6222 6.29675 13.9197C5.69686 14.2173 4.98787 14.1948 4.40799 13.86L0.99999 11.892C0.244695 11.4558 -0.140862 10.5805 0.047169 9.72883C0.690122 6.81663 2.19345 4.42936 4.53794 2.66067C6.93692 0.842864 9.88215 0 13.2321 0C15.4887 0 17.5656 0.368894 19.4215 1.16012C21.3075 1.91855 22.868 3.05537 24.0103 4.6056C25.1903 6.20704 25.7441 8.09197 25.7441 10.16C25.7441 12.3165 25.2585 14.2814 24.1765 15.9487C23.1739 17.5106 21.8065 18.7107 20.1184 19.537C19.0553 20.0676 17.9203 20.4632 16.7201 20.7304Z" fill="url(#paint0_linear)"/>
<path d="M12.6359 29.16C13.6809 29.16 14.6988 29.5021 15.4963 30.2996C16.2938 31.0972 16.6359 32.115 16.6359 33.16C16.6359 34.205 16.2938 35.2229 15.4963 36.0204C14.6988 36.8179 13.6809 37.16 12.6359 37.16C11.591 37.16 10.5731 36.8179 9.77557 36.0204C8.97806 35.2229 8.63594 34.205 8.63594 33.16C8.63594 32.115 8.97806 31.0972 9.77557 30.2996C10.5731 29.5021 11.591 29.16 12.6359 29.16Z" fill="url(#paint1_linear)"/>
<path d="M12.0472 19.16C11.4949 19.16 11.0472 19.447 11.0472 19.8011V23.519C11.0472 23.8731 11.4949 24.16 12.0472 24.16C12.5995 24.16 13.0472 23.8731 13.0472 23.519V19.8011C13.0472 19.447 12.5995 19.16 12.0472 19.16Z" fill="white"/>
<path d="M12.0472 16.16C11.4949 16.16 11.0472 16.4688 11.0472 16.8497V17.4704C11.0472 17.8513 11.4949 18.16 12.0472 18.16C12.5995 18.16 13.0472 17.8513 13.0472 17.4704V16.8497C13.0472 16.4689 12.5995 16.16 12.0472 16.16Z" fill="white"/>
<path d="M12.0472 31.16C11.4949 31.16 11.0472 31.4688 11.0472 31.8497V32.4704C11.0472 32.8513 11.4949 33.16 12.0472 33.16C12.5995 33.16 13.0472 32.8513 13.0472 32.4704V31.8497C13.0472 31.4689 12.5995 31.16 12.0472 31.16Z" fill="white"/>
</svg>
